<?xml version="1.0" encoding="UTF-8"?>
<svg id="Layer_2" data-name="Layer 2" xmlns="http://www.w3.org/2000/svg" viewBox="0 0 331.5 155.23">
  <defs>
    <style>
      .cls-1 {
        stroke: #000;
        stroke-width: 7.5px;
      }

      .cls-1, .cls-2 {
        fill: none;
        stroke-linecap: round;
        stroke-linejoin: round;
      }

      .cls-3 {
        fill: #ffcece;
      }

      .cls-4 {
        fill: #fff;
      }

      .cls-5 {
        fill: #ffd3a3;
      }

      .cls-2 {
        stroke: #fff;
        stroke-width: 14px;
      }
    </style>
  </defs>
  <g id="cat">
    <g id="NormalEar">
      <g id="N_Ear3color">
        <g id="base2">
          <g>
            <path class="cls-5" d="M131.98,102.75s-1.94-10.36-4.94-17.36c-3-7-29-39-35-48S51.05,3.39,51.05,3.39c0,0-12,28-20,54s-7,61-7,61l9.94,8.36,98-24Z"/>
            <path class="cls-4" d="M299.37,98.39s-9.32-36-17.63-50.19c-8.31-14.19-32.6-42.19-32.6-42.19,0,0-11.09,14.38-23.09,30.38s-34,54-34,54l37.94,15.36,56,4,13.38-11.36Z"/>
            <path class="cls-3" d="M250.98,22.75s-23,61-20,77c0,0,37,12,48,9,0,0-6-54-28-86Z"/>
            <path class="cls-3" d="M54.98,20.75s-24,75-21,92l1,11,53-20L54.98,20.75Z"/>
            <g>
              <g>
                <path class="cls-2" d="M56.85,80.69c14.61,3.79,24.2,21.49,24.2,21.49,0,0-19.52-11.93-29.6-6.84"/>
                <path class="cls-2" d="M50.73,109.75s19.45-8.44,30.32-7.57"/>
              </g>
              <g>
                <path class="cls-2" d="M260.58,76.49c-14.61,3.79-24.2,21.49-24.2,21.49,0,0,19.52-11.93,29.6-6.84"/>
                <path class="cls-2" d="M266.7,105.54s-19.45-8.44-30.32-7.57"/>
              </g>
            </g>
          </g>
        </g>
        <g id="ear">
          <path class="cls-1" d="M23.98,118.75s-1-35,7-61S50.98,3.75,50.98,3.75c0,0,35,25,41,34s32,41,35,48l3,7"/>
          <path class="cls-1" d="M55.98,20.75s31,60,31,81"/>
          <line class="cls-1" x1="55.98" y1="101.75" x2="63.98" y2="113.75"/>
          <line class="cls-1" x1="68.98" y1="98.75" x2="76.96" y2="110"/>
          <path class="cls-1" d="M191.98,90.75s22-38,34-54,23.09-30.38,23.09-30.38c0,0,24.29,28,32.6,42.19,8.31,14.19,17.63,50.19,17.63,50.19"/>
          <path class="cls-1" d="M249.98,25.75s-20.42,47-19.21,76"/>
          <line class="cls-1" x1="241.98" y1="105.75" x2="249.98" y2="95.36"/>
          <line class="cls-1" x1="254.06" y1="107.75" x2="269.37" y2="100.56"/>
        </g>
        <g>
          <line class="cls-1" x1="5.75" y1="122.48" x2="28.75" y2="130.48"/>
          <line class="cls-1" x1="3.75" y1="134.48" x2="25.75" y2="142.48"/>
          <path class="cls-1" d="M3.75,148.55c2.53.43,14.75,2.54,17,2.92"/>
          <line class="cls-1" x1="305.45" y1="130.48" x2="327.75" y2="123.48"/>
          <line class="cls-1" x1="300.75" y1="118.48" x2="325.75" y2="110.48"/>
          <line class="cls-1" x1="297.75" y1="106.48" x2="321.75" y2="99.48"/>
          <path class="cls-1" d="M115.14,102.98s34.61-14.5,80.61-8.5"/>
        </g>
      </g>
    </g>
  </g>
</svg>